<svg viewBox="0 0 512 512" xmlns="http://www.w3.org/2000/svg" fill-rule="evenodd" clip-rule="evenodd" stroke-linejoin="round" stroke-miterlimit="2"><g transform="translate(6 3.647) scale(2.65545)"><clipPath id="prefix__a"><path d="M0 0h188.292v190.064H0z"/></clipPath><g clip-path="url(#prefix__a)"><path d="M94.093.001L167.41 0c3.067 0 6.106.267 9.048 1.165 6.38 1.948 9.759 6.531 11.083 12.847.525 2.504.675 5.057.68 7.61.039 17.143.068 34.287.07 51.431 0 31.224.005 62.448-.06 93.672-.009 4.37-.24 8.79-2.395 12.77-2.39 4.417-5.662 7.911-10.628 9.449-.898.277-1.835.593-2.755.593-2.12.001-4.183.528-6.296.528-47.857-.004-95.715.024-143.572-.052-3.892-.007-7.848-.29-11.545-1.877-.736-.316-1.479-.582-2.125-1.075-4.708-3.593-7.904-8.075-8.59-14.139C.08 170.736 0 168.561 0 166.374c.008-48.586.012-97.173.037-145.76.002-2.818.031-5.685.896-8.382C3.24 5.042 8.283 1.119 15.76.322a49.83 49.83 0 015.236-.307C45.36-.005 69.728 0 94.093 0zm.775 120.9c.508 2.875.914 5.392 1.774 7.803 5.282 14.813 20.975 27.057 41.448 22.124 14.664-3.534 25.323-17.048 25.786-32.12.22-7.223-1.504-13.872-5.414-19.932-.674-1.047-.73-1.859-.202-2.984a59.639 59.639 0 004.914-16.042c.884-5.58 1.07-11.162-.001-16.75-2.536-13.223-15.98-27.459-34.13-27.29-17.91.166-30.545 13.673-33.273 26.58-.329 1.557-.58 3.13-.932 5.035-.233-1.052-.434-1.752-.54-2.465-2.118-14.208-15.685-26.843-30.329-28.227-16.656-1.576-29.09 7.919-34.756 19.104-1.933 3.819-2.968 7.896-3.302 12.159-.627 7.974 1.098 15.361 5.545 22.05.519.78.527 1.388.112 2.194-2.896 5.632-4.752 11.604-5.4 17.898-.607 5.892-.775 11.795.901 17.583 4.628 15.976 20.02 26.26 36.686 24.424 14.098-1.553 23.502-9.357 29.02-22.164 1.18-2.732 1.555-5.699 2.093-8.98z" fill="#fb7a24" fill-rule="nonzero"/><path d="M94.868 120.901c-.536 3.281-.912 6.247-2.09 8.98-5.52 12.807-14.924 20.61-29.022 22.164-16.665 1.836-32.057-8.45-36.685-24.424-1.678-5.79-1.51-11.69-.902-17.583.65-6.296 2.504-12.266 5.4-17.898.415-.806.407-1.414-.112-2.194-4.446-6.688-6.172-14.076-5.545-22.05.335-4.263 1.37-8.34 3.303-12.159 5.664-11.186 18.1-20.68 34.756-19.104C78.616 38.02 92.18 50.652 94.298 64.86c.107.713.307 1.413.542 2.465.35-1.905.604-3.477.932-5.034 2.728-12.908 15.362-26.415 33.272-26.582 18.152-.168 31.594 14.068 34.13 27.29 1.072 5.589.886 11.171.002 16.751a59.686 59.686 0 01-4.915 16.042c-.528 1.126-.473 1.937.203 2.984 3.909 6.058 5.634 12.71 5.413 19.932-.463 15.07-11.121 28.585-25.785 32.12-20.474 4.933-36.167-7.311-41.448-22.124-.862-2.411-1.27-4.928-1.776-7.803zm37.194-26.477c.219-.852.879-1.363 1.354-1.994 5.133-6.82 7.833-14.44 7.23-23.02-.438-6.263-5.589-10.674-11.824-10.44-6.238.233-10.94 5.045-11.028 11.287-.006.51.024 1.023-.008 1.53-.429 6.654-4.1 10.298-9.662 10.705-1.016.074-2.035.165-3.052.168-7.22.016-14.439.013-21.659.006-3.153-.002-6.28.34-9.283 1.267-14.017 4.325-22.19 13.91-24.897 28.197-.536 2.827-1.018 5.76-.092 8.664 1.33 4.164 3.808 7.262 8.196 8.298 4.548 1.073 8.51-.115 11.656-3.687 2.035-2.31 2.676-5.053 2.828-8.065.393-7.747 4.612-11.619 11.647-11.56 10.792.09 21.585.018 32.378.026 1.916.002 1.934.027 1.943 1.922.019 3.5-.09 7.004.045 10.5.22 5.706 5.242 10.45 11.063 10.617 6.003.172 11.353-4.268 11.744-10.064.337-5.016.316-10.064-.013-15.084-.255-3.887-2.358-6.656-5.92-8.264-.855-.384-1.754-.672-2.646-1.01zM64.411 82.649c2.32 0 4.215-.021 6.109.01.938.014 1.286-.39 1.278-1.31-.03-3.641.158-7.295-.074-10.923-.307-4.786-2.852-8.246-7.308-9.991-4.57-1.79-8.75-.768-12.287 2.606-3.552 3.39-4.025 7.537-2.782 12.076 1.14 4.17 3.838 6.54 8.08 7.256 2.464.415 4.94.216 6.984.276z" fill="#fff" fill-rule="nonzero"/><path d="M132.062 94.424c.894.337 1.792.625 2.647 1.01 3.563 1.607 5.665 4.378 5.92 8.264.328 5.02.35 10.068.013 15.084-.39 5.796-5.742 10.235-11.744 10.064-5.82-.166-10.841-4.91-11.062-10.617-.135-3.495-.027-7-.046-10.5-.01-1.895-.026-1.92-1.942-1.921-10.794-.008-21.587.062-32.379-.027-7.035-.059-11.253 3.815-11.647 11.56-.153 3.012-.793 5.756-2.828 8.065-3.146 3.571-7.107 4.76-11.655 3.687-4.388-1.036-6.867-4.133-8.196-8.297-.927-2.903-.444-5.838.092-8.664C51.94 97.845 60.113 88.26 74.132 83.934c3.002-.926 6.128-1.269 9.282-1.266 7.22.006 14.44.01 21.66-.006 1.016-.002 2.035-.093 3.051-.168 5.563-.406 9.233-4.05 9.663-10.704.033-.508.001-1.02.008-1.53.088-6.241 4.789-11.053 11.028-11.288 6.234-.233 11.385 4.177 11.824 10.44.601 8.58-2.098 16.2-7.231 23.021-.476.628-1.137 1.139-1.355 1.99zM64.41 82.65c-2.043-.06-4.52.14-6.983-.277-4.242-.716-6.94-3.085-8.08-7.256-1.242-4.539-.77-8.686 2.782-12.076 3.536-3.374 7.718-4.394 12.287-2.606 4.456 1.744 7.001 5.205 7.308 9.991.232 3.627.044 7.282.074 10.923.008.92-.34 1.325-1.278 1.31-1.894-.033-3.787-.01-6.11-.01z" fill="#fb7a24" fill-rule="nonzero"/></g></g></svg>